<?xml version="1.0" encoding="iso-8859-1"?>
<!-- Generator: Adobe Illustrator 19.0.0, SVG Export Plug-In . SVG Version: 6.00 Build 0)  -->
<svg version="1.1" id="Capa_1" xmlns="http://www.w3.org/2000/svg" xmlns:xlink="http://www.w3.org/1999/xlink" x="0px" y="0px"
	 viewBox="0 0 288.312 288.312" style="enable-background:new 0 0 288.312 288.312;" xml:space="preserve">
<g>
	<path id="Subdirectory_Arrow_Up_Right" d="M11.866,108.231v168.051c0,6.641,5.39,12.03,12.03,12.03s12.03-5.39,12.03-12.03V120.477
		h199.474l-74.444,75.274c-4.704,4.74-4.704,12.427,0,17.167c4.704,4.74,12.319,4.74,17.011,0l94.715-95.785
		c4.86-4.596,5.065-12.692,0.313-17.48L177.968,3.555c-4.704-4.74-12.319-4.74-17.011,0c-4.704,4.74-4.704,12.427,0,17.167
		l74.648,75.49H23.896C17.255,96.2,11.866,101.59,11.866,108.231z"/>
	<g>
	</g>
	<g>
	</g>
	<g>
	</g>
	<g>
	</g>
	<g>
	</g>
	<g>
	</g>
</g>
<g>
</g>
<g>
</g>
<g>
</g>
<g>
</g>
<g>
</g>
<g>
</g>
<g>
</g>
<g>
</g>
<g>
</g>
<g>
</g>
<g>
</g>
<g>
</g>
<g>
</g>
<g>
</g>
<g>
</g>
</svg>
